# xmcd
#
# Track frame offsets: 
#        150
#        12049
#        32643
#        54330
#        75273
#        91908
#        111900
#        132986
#        155836
#        176567
#        193939
#        211629
#        229414
#        248009
#
# Disc length: 3541 seconds
#
# Revision: 0
# Processed by: cddbd v1.5.2PL0 Copyright (c) Steve Scherf et al.
# Submitted via: ExactAudioCopyFreeDBPlugin 1.0
#
DISCID=ad0dd30e
DTITLE=Cortex - The Desturcteur
DYEAR=2007
DGENRE=Hip-Hop
TTITLE0=Intro
TTITLE1=A Des Kilometres
TTITLE2=Qui fait mieux qu'ca ?
TTITLE3=Evolution
TTITLE4=Le Coeur Pour Esperer
TTITLE5=The Rap Of The Street
TTITLE6=Tu Reconnais L'Style
TTITLE7=Si La Rue Aurait Un Blaze
TTITLE8=L'Heure Du Reveil 2
TTITLE9=Avale Nos Phrases
TTITLE10=Le Son Qu'Acheve
TTITLE11=The Destructeur
TTITLE12=10 Fois Plus Venere
TTITLE13=Outro Mot De La Fin
EXTD=
EXTT0=
EXTT1=
EXTT2=
EXTT3=
EXTT4=
EXTT5=
EXTT6=
EXTT7=
EXTT8=
EXTT9=
EXTT10=
EXTT11=
EXTT12=
EXTT13=
PLAYORDER=
